G04 EAGLE Gerber RS-274X export*
G75*
%MOMM*%
%FSLAX34Y34*%
%LPD*%
%INBottom Copper*%
%IPPOS*%
%AMOC8*
5,1,8,0,0,1.08239X$1,22.5*%
G01*
%ADD10C,1.320800*%
%ADD11P,1.429621X8X202.500000*%
%ADD12R,1.676400X1.676400*%
%ADD13C,1.676400*%
%ADD14P,1.649562X8X112.500000*%
%ADD15P,1.649562X8X202.500000*%
%ADD16R,2.100000X2.100000*%
%ADD17C,0.203200*%


D10*
X91812Y372853D02*
X105020Y372853D01*
X168012Y372853D02*
X181220Y372853D01*
D11*
X151494Y325968D03*
X164194Y306918D03*
X176894Y325968D03*
D12*
X263316Y380995D03*
D13*
X263316Y355595D03*
X263316Y330195D03*
X263316Y304795D03*
X339516Y304795D03*
X339516Y330195D03*
X339516Y355595D03*
X339516Y380995D03*
D14*
X381831Y253923D03*
X381831Y304723D03*
X443636Y280170D03*
X443636Y330970D03*
X503747Y304725D03*
X503747Y355525D03*
X49993Y306435D03*
X49993Y357235D03*
D15*
X186356Y242574D03*
X135556Y242574D03*
D11*
X87292Y242066D03*
X61892Y242066D03*
D16*
X94817Y424575D03*
X94817Y479575D03*
X626306Y387325D03*
X584306Y387325D03*
X584306Y442325D03*
X626306Y442325D03*
X458847Y443172D03*
X458847Y388172D03*
X568903Y276395D03*
X568903Y221395D03*
D17*
X381831Y253923D02*
X368263Y267491D01*
X368263Y369110D01*
X355757Y381616D01*
X340138Y381616D01*
X339516Y380995D01*
X443636Y330970D02*
X525684Y330970D01*
X545199Y350485D02*
X545199Y386888D01*
X576522Y418212D01*
X584142Y418212D01*
X584142Y442161D01*
X584306Y442325D01*
X545199Y350485D02*
X525684Y330970D01*
X428324Y304723D02*
X381831Y304723D01*
X428324Y304723D02*
X437683Y314082D01*
X467313Y314082D01*
X474933Y306463D02*
X474933Y289531D01*
X487631Y276832D01*
X538426Y298843D02*
X538426Y317468D01*
X553665Y332707D01*
X625187Y442325D02*
X626306Y442325D01*
X474933Y306463D02*
X467313Y314082D01*
X487631Y276832D02*
X516415Y276832D01*
X538426Y298843D01*
X553665Y332707D02*
X590068Y332707D01*
X607846Y350485D01*
X607846Y424984D01*
X625187Y442325D01*
M02*
