G04 EAGLE Gerber RS-274X export*
G75*
%MOMM*%
%FSLAX34Y34*%
%LPD*%
%IN*%
%IPPOS*%
%AMOC8*
5,1,8,0,0,1.08239X$1,22.5*%
G01*
%ADD10C,0.254000*%


D10*
X-18881Y636694D02*
X-18034Y149101D01*
X725667Y149863D01*
X724820Y635763D01*
X-18881Y636694D01*
X5772Y168868D02*
X5705Y168530D01*
X5573Y168211D01*
X5381Y167925D01*
X5138Y167681D01*
X4851Y167489D01*
X4532Y167357D01*
X4194Y167290D01*
X3850Y167290D01*
X3511Y167357D01*
X3193Y167489D01*
X2906Y167681D01*
X2663Y167925D01*
X2471Y168211D01*
X2339Y168530D01*
X2272Y168868D01*
X2272Y169212D01*
X2339Y169551D01*
X2471Y169869D01*
X2663Y170156D01*
X2906Y170399D01*
X3193Y170591D01*
X3511Y170723D01*
X3850Y170790D01*
X4194Y170790D01*
X4532Y170723D01*
X4851Y170591D01*
X5138Y170399D01*
X5381Y170156D01*
X5573Y169869D01*
X5705Y169551D01*
X5772Y169212D01*
X5772Y168868D01*
X702354Y168868D02*
X702287Y168530D01*
X702155Y168211D01*
X701963Y167925D01*
X701719Y167681D01*
X701433Y167489D01*
X701114Y167357D01*
X700776Y167290D01*
X700431Y167290D01*
X700093Y167357D01*
X699775Y167489D01*
X699488Y167681D01*
X699244Y167925D01*
X699053Y168211D01*
X698921Y168530D01*
X698854Y168868D01*
X698854Y169212D01*
X698921Y169551D01*
X699053Y169869D01*
X699244Y170156D01*
X699488Y170399D01*
X699775Y170591D01*
X700093Y170723D01*
X700431Y170790D01*
X700776Y170790D01*
X701114Y170723D01*
X701433Y170591D01*
X701719Y170399D01*
X701963Y170156D01*
X702155Y169869D01*
X702287Y169551D01*
X702354Y169212D01*
X702354Y168868D01*
X702354Y612915D02*
X702287Y612577D01*
X702155Y612258D01*
X701963Y611972D01*
X701719Y611728D01*
X701433Y611537D01*
X701114Y611405D01*
X700776Y611337D01*
X700431Y611337D01*
X700093Y611405D01*
X699775Y611537D01*
X699488Y611728D01*
X699244Y611972D01*
X699053Y612258D01*
X698921Y612577D01*
X698854Y612915D01*
X698854Y613260D01*
X698921Y613598D01*
X699053Y613916D01*
X699244Y614203D01*
X699488Y614447D01*
X699775Y614638D01*
X700093Y614770D01*
X700431Y614837D01*
X700776Y614837D01*
X701114Y614770D01*
X701433Y614638D01*
X701719Y614447D01*
X701963Y614203D01*
X702155Y613916D01*
X702287Y613598D01*
X702354Y613260D01*
X702354Y612915D01*
X5772Y612915D02*
X5705Y612577D01*
X5573Y612258D01*
X5381Y611972D01*
X5138Y611728D01*
X4851Y611537D01*
X4532Y611405D01*
X4194Y611337D01*
X3850Y611337D01*
X3511Y611405D01*
X3193Y611537D01*
X2906Y611728D01*
X2663Y611972D01*
X2471Y612258D01*
X2339Y612577D01*
X2272Y612915D01*
X2272Y613260D01*
X2339Y613598D01*
X2471Y613916D01*
X2663Y614203D01*
X2906Y614447D01*
X3193Y614638D01*
X3511Y614770D01*
X3850Y614837D01*
X4194Y614837D01*
X4532Y614770D01*
X4851Y614638D01*
X5138Y614447D01*
X5381Y614203D01*
X5573Y613916D01*
X5705Y613598D01*
X5772Y613260D01*
X5772Y612915D01*
X156817Y474439D02*
X156741Y473370D01*
X156588Y472310D01*
X156361Y471263D01*
X156059Y470235D01*
X155684Y469231D01*
X155239Y468256D01*
X154726Y467316D01*
X154146Y466415D01*
X153504Y465557D01*
X152803Y464747D01*
X152045Y463989D01*
X151235Y463288D01*
X150378Y462646D01*
X149476Y462066D01*
X148536Y461553D01*
X147561Y461108D01*
X146557Y460733D01*
X145529Y460432D01*
X144482Y460204D01*
X143422Y460051D01*
X142353Y459975D01*
X141282Y459975D01*
X140213Y460051D01*
X139152Y460204D01*
X138105Y460432D01*
X137077Y460733D01*
X136073Y461108D01*
X135099Y461553D01*
X134158Y462066D01*
X133257Y462646D01*
X132399Y463288D01*
X131589Y463989D01*
X130832Y464747D01*
X130130Y465557D01*
X129488Y466415D01*
X128909Y467316D01*
X128395Y468256D01*
X127950Y469231D01*
X127576Y470235D01*
X127274Y471263D01*
X127046Y472310D01*
X126894Y473370D01*
X126817Y474439D01*
X126817Y475511D01*
X126894Y476579D01*
X127046Y477640D01*
X127274Y478687D01*
X127576Y479715D01*
X127950Y480719D01*
X128395Y481693D01*
X128909Y482634D01*
X129488Y483535D01*
X130130Y484393D01*
X130832Y485203D01*
X131589Y485960D01*
X132399Y486662D01*
X133257Y487304D01*
X134158Y487883D01*
X135099Y488397D01*
X136073Y488842D01*
X137077Y489216D01*
X138105Y489518D01*
X139152Y489746D01*
X140213Y489898D01*
X141282Y489975D01*
X142353Y489975D01*
X143422Y489898D01*
X144482Y489746D01*
X145529Y489518D01*
X146557Y489216D01*
X147561Y488842D01*
X148536Y488397D01*
X149476Y487883D01*
X150378Y487304D01*
X151235Y486662D01*
X152045Y485960D01*
X152803Y485203D01*
X153504Y484393D01*
X154146Y483535D01*
X154726Y482634D01*
X155239Y481693D01*
X155684Y480719D01*
X156059Y479715D01*
X156361Y478687D01*
X156588Y477640D01*
X156741Y476579D01*
X156817Y475511D01*
X156817Y474439D01*
X62817Y474439D02*
X62741Y473370D01*
X62588Y472310D01*
X62361Y471263D01*
X62059Y470235D01*
X61684Y469231D01*
X61239Y468256D01*
X60726Y467316D01*
X60146Y466415D01*
X59504Y465557D01*
X58803Y464747D01*
X58045Y463989D01*
X57235Y463288D01*
X56378Y462646D01*
X55476Y462066D01*
X54536Y461553D01*
X53561Y461108D01*
X52557Y460733D01*
X51529Y460432D01*
X50482Y460204D01*
X49422Y460051D01*
X48353Y459975D01*
X47282Y459975D01*
X46213Y460051D01*
X45152Y460204D01*
X44105Y460432D01*
X43077Y460733D01*
X42073Y461108D01*
X41099Y461553D01*
X40158Y462066D01*
X39257Y462646D01*
X38399Y463288D01*
X37589Y463989D01*
X36832Y464747D01*
X36130Y465557D01*
X35488Y466415D01*
X34909Y467316D01*
X34395Y468256D01*
X33950Y469231D01*
X33576Y470235D01*
X33274Y471263D01*
X33046Y472310D01*
X32894Y473370D01*
X32817Y474439D01*
X32817Y475511D01*
X32894Y476579D01*
X33046Y477640D01*
X33274Y478687D01*
X33576Y479715D01*
X33950Y480719D01*
X34395Y481693D01*
X34909Y482634D01*
X35488Y483535D01*
X36130Y484393D01*
X36832Y485203D01*
X37589Y485960D01*
X38399Y486662D01*
X39257Y487304D01*
X40158Y487883D01*
X41099Y488397D01*
X42073Y488842D01*
X43077Y489216D01*
X44105Y489518D01*
X45152Y489746D01*
X46213Y489898D01*
X47282Y489975D01*
X48353Y489975D01*
X49422Y489898D01*
X50482Y489746D01*
X51529Y489518D01*
X52557Y489216D01*
X53561Y488842D01*
X54536Y488397D01*
X55476Y487883D01*
X56378Y487304D01*
X57235Y486662D01*
X58045Y485960D01*
X58803Y485203D01*
X59504Y484393D01*
X60146Y483535D01*
X60726Y482634D01*
X61239Y481693D01*
X61684Y480719D01*
X62059Y479715D01*
X62361Y478687D01*
X62588Y477640D01*
X62741Y476579D01*
X62817Y475511D01*
X62817Y474439D01*
X688306Y437189D02*
X688230Y436121D01*
X688077Y435060D01*
X687849Y434013D01*
X687548Y432985D01*
X687173Y431981D01*
X686728Y431007D01*
X686215Y430066D01*
X685635Y429165D01*
X684993Y428307D01*
X684292Y427497D01*
X683534Y426740D01*
X682724Y426038D01*
X681866Y425396D01*
X680965Y424817D01*
X680025Y424303D01*
X679050Y423858D01*
X678046Y423484D01*
X677018Y423182D01*
X675971Y422954D01*
X674911Y422802D01*
X673842Y422725D01*
X672770Y422725D01*
X671702Y422802D01*
X670641Y422954D01*
X669594Y423182D01*
X668566Y423484D01*
X667562Y423858D01*
X666588Y424303D01*
X665647Y424817D01*
X664746Y425396D01*
X663888Y426038D01*
X663078Y426740D01*
X662321Y427497D01*
X661619Y428307D01*
X660977Y429165D01*
X660398Y430066D01*
X659884Y431007D01*
X659439Y431981D01*
X659065Y432985D01*
X658763Y434013D01*
X658535Y435060D01*
X658383Y436121D01*
X658306Y437189D01*
X658306Y438261D01*
X658383Y439330D01*
X658535Y440390D01*
X658763Y441437D01*
X659065Y442465D01*
X659439Y443469D01*
X659884Y444444D01*
X660398Y445384D01*
X660977Y446285D01*
X661619Y447143D01*
X662321Y447953D01*
X663078Y448711D01*
X663888Y449412D01*
X664746Y450054D01*
X665647Y450634D01*
X666588Y451147D01*
X667562Y451592D01*
X668566Y451967D01*
X669594Y452269D01*
X670641Y452496D01*
X671702Y452649D01*
X672770Y452725D01*
X673842Y452725D01*
X674911Y452649D01*
X675971Y452496D01*
X677018Y452269D01*
X678046Y451967D01*
X679050Y451592D01*
X680025Y451147D01*
X680965Y450634D01*
X681866Y450054D01*
X682724Y449412D01*
X683534Y448711D01*
X684292Y447953D01*
X684993Y447143D01*
X685635Y446285D01*
X686215Y445384D01*
X686728Y444444D01*
X687173Y443469D01*
X687548Y442465D01*
X687849Y441437D01*
X688077Y440390D01*
X688230Y439330D01*
X688306Y438261D01*
X688306Y437189D01*
X552306Y437189D02*
X552230Y436121D01*
X552077Y435060D01*
X551849Y434013D01*
X551548Y432985D01*
X551173Y431981D01*
X550728Y431007D01*
X550215Y430066D01*
X549635Y429165D01*
X548993Y428307D01*
X548292Y427497D01*
X547534Y426740D01*
X546724Y426038D01*
X545866Y425396D01*
X544965Y424817D01*
X544025Y424303D01*
X543050Y423858D01*
X542046Y423484D01*
X541018Y423182D01*
X539971Y422954D01*
X538911Y422802D01*
X537842Y422725D01*
X536770Y422725D01*
X535702Y422802D01*
X534641Y422954D01*
X533594Y423182D01*
X532566Y423484D01*
X531562Y423858D01*
X530588Y424303D01*
X529647Y424817D01*
X528746Y425396D01*
X527888Y426038D01*
X527078Y426740D01*
X526321Y427497D01*
X525619Y428307D01*
X524977Y429165D01*
X524398Y430066D01*
X523884Y431007D01*
X523439Y431981D01*
X523065Y432985D01*
X522763Y434013D01*
X522535Y435060D01*
X522383Y436121D01*
X522306Y437189D01*
X522306Y438261D01*
X522383Y439330D01*
X522535Y440390D01*
X522763Y441437D01*
X523065Y442465D01*
X523439Y443469D01*
X523884Y444444D01*
X524398Y445384D01*
X524977Y446285D01*
X525619Y447143D01*
X526321Y447953D01*
X527078Y448711D01*
X527888Y449412D01*
X528746Y450054D01*
X529647Y450634D01*
X530588Y451147D01*
X531562Y451592D01*
X532566Y451967D01*
X533594Y452269D01*
X534641Y452496D01*
X535702Y452649D01*
X536770Y452725D01*
X537842Y452725D01*
X538911Y452649D01*
X539971Y452496D01*
X541018Y452269D01*
X542046Y451967D01*
X543050Y451592D01*
X544025Y451147D01*
X544965Y450634D01*
X545866Y450054D01*
X546724Y449412D01*
X547534Y448711D01*
X548292Y447953D01*
X548993Y447143D01*
X549635Y446285D01*
X550215Y445384D01*
X550728Y444444D01*
X551173Y443469D01*
X551548Y442465D01*
X551849Y441437D01*
X552077Y440390D01*
X552230Y439330D01*
X552306Y438261D01*
X552306Y437189D01*
X396847Y393307D02*
X396924Y394376D01*
X397076Y395437D01*
X397304Y396484D01*
X397606Y397512D01*
X397980Y398516D01*
X398426Y399490D01*
X398939Y400431D01*
X399518Y401332D01*
X400160Y402190D01*
X400862Y403000D01*
X401620Y403757D01*
X402429Y404459D01*
X403287Y405101D01*
X404189Y405680D01*
X405129Y406194D01*
X406104Y406639D01*
X407107Y407013D01*
X408136Y407315D01*
X409182Y407543D01*
X410243Y407695D01*
X411312Y407772D01*
X412383Y407772D01*
X413452Y407695D01*
X414512Y407543D01*
X415559Y407315D01*
X416587Y407013D01*
X417591Y406639D01*
X418566Y406194D01*
X419506Y405680D01*
X420408Y405101D01*
X421266Y404459D01*
X422075Y403757D01*
X422833Y403000D01*
X423535Y402190D01*
X424177Y401332D01*
X424756Y400431D01*
X425269Y399490D01*
X425715Y398516D01*
X426089Y397512D01*
X426391Y396484D01*
X426619Y395437D01*
X426771Y394376D01*
X426847Y393307D01*
X426847Y392236D01*
X426771Y391167D01*
X426619Y390107D01*
X426391Y389060D01*
X426089Y388032D01*
X425715Y387028D01*
X425269Y386053D01*
X424756Y385113D01*
X424177Y384211D01*
X423535Y383354D01*
X422833Y382544D01*
X422075Y381786D01*
X421266Y381085D01*
X420408Y380443D01*
X419506Y379863D01*
X418566Y379350D01*
X417591Y378905D01*
X416587Y378530D01*
X415559Y378228D01*
X414512Y378001D01*
X413452Y377848D01*
X412383Y377772D01*
X411312Y377772D01*
X410243Y377848D01*
X409182Y378001D01*
X408136Y378228D01*
X407107Y378530D01*
X406104Y378905D01*
X405129Y379350D01*
X404189Y379863D01*
X403287Y380443D01*
X402429Y381085D01*
X401620Y381786D01*
X400862Y382544D01*
X400160Y383354D01*
X399518Y384211D01*
X398939Y385113D01*
X398426Y386053D01*
X397980Y387028D01*
X397606Y388032D01*
X397304Y389060D01*
X397076Y390107D01*
X396924Y391167D01*
X396847Y392236D01*
X396847Y393307D01*
X490847Y393307D02*
X490924Y394376D01*
X491076Y395437D01*
X491304Y396484D01*
X491606Y397512D01*
X491980Y398516D01*
X492426Y399490D01*
X492939Y400431D01*
X493518Y401332D01*
X494160Y402190D01*
X494862Y403000D01*
X495620Y403757D01*
X496429Y404459D01*
X497287Y405101D01*
X498189Y405680D01*
X499129Y406194D01*
X500104Y406639D01*
X501107Y407013D01*
X502136Y407315D01*
X503182Y407543D01*
X504243Y407695D01*
X505312Y407772D01*
X506383Y407772D01*
X507452Y407695D01*
X508512Y407543D01*
X509559Y407315D01*
X510587Y407013D01*
X511591Y406639D01*
X512566Y406194D01*
X513506Y405680D01*
X514408Y405101D01*
X515266Y404459D01*
X516075Y403757D01*
X516833Y403000D01*
X517535Y402190D01*
X518177Y401332D01*
X518756Y400431D01*
X519269Y399490D01*
X519715Y398516D01*
X520089Y397512D01*
X520391Y396484D01*
X520619Y395437D01*
X520771Y394376D01*
X520847Y393307D01*
X520847Y392236D01*
X520771Y391167D01*
X520619Y390107D01*
X520391Y389060D01*
X520089Y388032D01*
X519715Y387028D01*
X519269Y386053D01*
X518756Y385113D01*
X518177Y384211D01*
X517535Y383354D01*
X516833Y382544D01*
X516075Y381786D01*
X515266Y381085D01*
X514408Y380443D01*
X513506Y379863D01*
X512566Y379350D01*
X511591Y378905D01*
X510587Y378530D01*
X509559Y378228D01*
X508512Y378001D01*
X507452Y377848D01*
X506383Y377772D01*
X505312Y377772D01*
X504243Y377848D01*
X503182Y378001D01*
X502136Y378228D01*
X501107Y378530D01*
X500104Y378905D01*
X499129Y379350D01*
X498189Y379863D01*
X497287Y380443D01*
X496429Y381085D01*
X495620Y381786D01*
X494862Y382544D01*
X494160Y383354D01*
X493518Y384211D01*
X492939Y385113D01*
X492426Y386053D01*
X491980Y387028D01*
X491606Y388032D01*
X491304Y389060D01*
X491076Y390107D01*
X490924Y391167D01*
X490847Y392236D01*
X490847Y393307D01*
X506903Y226531D02*
X506980Y227600D01*
X507132Y228660D01*
X507360Y229707D01*
X507662Y230735D01*
X508036Y231739D01*
X508481Y232714D01*
X508995Y233654D01*
X509574Y234555D01*
X510216Y235413D01*
X510918Y236223D01*
X511675Y236981D01*
X512485Y237682D01*
X513343Y238324D01*
X514244Y238904D01*
X515185Y239417D01*
X516159Y239862D01*
X517163Y240237D01*
X518191Y240538D01*
X519238Y240766D01*
X520299Y240919D01*
X521367Y240995D01*
X522439Y240995D01*
X523508Y240919D01*
X524568Y240766D01*
X525615Y240538D01*
X526643Y240237D01*
X527647Y239862D01*
X528622Y239417D01*
X529562Y238904D01*
X530463Y238324D01*
X531321Y237682D01*
X532131Y236981D01*
X532889Y236223D01*
X533590Y235413D01*
X534232Y234555D01*
X534812Y233654D01*
X535325Y232714D01*
X535770Y231739D01*
X536145Y230735D01*
X536446Y229707D01*
X536674Y228660D01*
X536827Y227600D01*
X536903Y226531D01*
X536903Y225459D01*
X536827Y224391D01*
X536674Y223330D01*
X536446Y222283D01*
X536145Y221255D01*
X535770Y220251D01*
X535325Y219277D01*
X534812Y218336D01*
X534232Y217435D01*
X533590Y216577D01*
X532889Y215767D01*
X532131Y215010D01*
X531321Y214308D01*
X530463Y213666D01*
X529562Y213087D01*
X528622Y212573D01*
X527647Y212128D01*
X526643Y211754D01*
X525615Y211452D01*
X524568Y211224D01*
X523508Y211072D01*
X522439Y210995D01*
X521367Y210995D01*
X520299Y211072D01*
X519238Y211224D01*
X518191Y211452D01*
X517163Y211754D01*
X516159Y212128D01*
X515185Y212573D01*
X514244Y213087D01*
X513343Y213666D01*
X512485Y214308D01*
X511675Y215010D01*
X510918Y215767D01*
X510216Y216577D01*
X509574Y217435D01*
X508995Y218336D01*
X508481Y219277D01*
X508036Y220251D01*
X507662Y221255D01*
X507360Y222283D01*
X507132Y223330D01*
X506980Y224391D01*
X506903Y225459D01*
X506903Y226531D01*
X600903Y226531D02*
X600980Y227600D01*
X601132Y228660D01*
X601360Y229707D01*
X601662Y230735D01*
X602036Y231739D01*
X602481Y232714D01*
X602995Y233654D01*
X603574Y234555D01*
X604216Y235413D01*
X604918Y236223D01*
X605675Y236981D01*
X606485Y237682D01*
X607343Y238324D01*
X608244Y238904D01*
X609185Y239417D01*
X610159Y239862D01*
X611163Y240237D01*
X612191Y240538D01*
X613238Y240766D01*
X614299Y240919D01*
X615367Y240995D01*
X616439Y240995D01*
X617508Y240919D01*
X618568Y240766D01*
X619615Y240538D01*
X620643Y240237D01*
X621647Y239862D01*
X622622Y239417D01*
X623562Y238904D01*
X624463Y238324D01*
X625321Y237682D01*
X626131Y236981D01*
X626889Y236223D01*
X627590Y235413D01*
X628232Y234555D01*
X628812Y233654D01*
X629325Y232714D01*
X629770Y231739D01*
X630145Y230735D01*
X630446Y229707D01*
X630674Y228660D01*
X630827Y227600D01*
X630903Y226531D01*
X630903Y225459D01*
X630827Y224391D01*
X630674Y223330D01*
X630446Y222283D01*
X630145Y221255D01*
X629770Y220251D01*
X629325Y219277D01*
X628812Y218336D01*
X628232Y217435D01*
X627590Y216577D01*
X626889Y215767D01*
X626131Y215010D01*
X625321Y214308D01*
X624463Y213666D01*
X623562Y213087D01*
X622622Y212573D01*
X621647Y212128D01*
X620643Y211754D01*
X619615Y211452D01*
X618568Y211224D01*
X617508Y211072D01*
X616439Y210995D01*
X615367Y210995D01*
X614299Y211072D01*
X613238Y211224D01*
X612191Y211452D01*
X611163Y211754D01*
X610159Y212128D01*
X609185Y212573D01*
X608244Y213087D01*
X607343Y213666D01*
X606485Y214308D01*
X605675Y215010D01*
X604918Y215767D01*
X604216Y216577D01*
X603574Y217435D01*
X602995Y218336D01*
X602481Y219277D01*
X602036Y220251D01*
X601662Y221255D01*
X601360Y222283D01*
X601132Y223330D01*
X600980Y224391D01*
X600903Y225459D01*
X600903Y226531D01*
M02*
