G04 EAGLE Gerber RS-274X export*
G75*
%MOMM*%
%FSLAX34Y34*%
%LPD*%
%INSoldermask Bottom*%
%IPPOS*%
%AMOC8*
5,1,8,0,0,1.08239X$1,22.5*%
G01*
%ADD10C,0.553200*%
%ADD11C,1.524000*%
%ADD12P,1.649562X8X202.500000*%
%ADD13R,1.879600X1.879600*%
%ADD14C,1.879600*%
%ADD15P,1.869504X8X112.500000*%
%ADD16P,1.869504X8X202.500000*%
%ADD17R,2.303200X2.303200*%
%ADD18C,3.203200*%


D10*
X4022Y169040D03*
X700604Y169040D03*
X700604Y613087D03*
X4022Y613087D03*
D11*
X91812Y372853D02*
X105020Y372853D01*
X168012Y372853D02*
X181220Y372853D01*
D12*
X151494Y325968D03*
X164194Y306918D03*
X176894Y325968D03*
D13*
X263316Y380995D03*
D14*
X263316Y355595D03*
X263316Y330195D03*
X263316Y304795D03*
X339516Y304795D03*
X339516Y330195D03*
X339516Y355595D03*
X339516Y380995D03*
D15*
X381831Y253923D03*
X381831Y304723D03*
X443636Y280170D03*
X443636Y330970D03*
X503747Y304725D03*
X503747Y355525D03*
X49993Y306435D03*
X49993Y357235D03*
D16*
X186356Y242574D03*
X135556Y242574D03*
D12*
X87292Y242066D03*
X61892Y242066D03*
D17*
X94817Y424575D03*
X94817Y479575D03*
D18*
X141817Y474975D03*
X47817Y474975D03*
D17*
X626306Y387325D03*
X584306Y387325D03*
X584306Y442325D03*
X626306Y442325D03*
D18*
X673306Y437725D03*
X537306Y437725D03*
D17*
X458847Y443172D03*
X458847Y388172D03*
D18*
X411847Y392772D03*
X505847Y392772D03*
D17*
X568903Y276395D03*
X568903Y221395D03*
D18*
X521903Y225995D03*
X615903Y225995D03*
M02*
