M48
;GenerationSoftware,Autodesk,EAGLE,9.2.2*%
;CreationDate,2018-12-20T13:18:58Z*%
FMAT,2
ICI,OFF
METRIC,TZ,000.000
T6C0.350
T5C0.813
T4C1.016
T3C1.118
T2C1.400
T1C3.000
%
G90
M71
T1
X14182Y47497
X4782Y47497
X67331Y43773
X53731Y43773
X41185Y39277
X50585Y39277
X52190Y22600
X61590Y22600
T2
X58431Y38733
X62631Y44233
X45885Y44317
X45885Y38817
X56890Y27640
X56890Y22140
X58431Y44233
X9482Y42457
X9482Y47957
X62631Y38733
T3
X26332Y38099
X26332Y35559
X26332Y33019
X26332Y30479
X33952Y30479
X33952Y33019
X33952Y38099
X33952Y35559
T4
X18636Y24257
X13556Y24257
X38183Y25392
X38183Y30472
X44364Y28017
X44364Y33097
X50375Y30473
X50375Y35553
X4999Y30643
X4999Y35723
T5
X9842Y37285
X17462Y37285
X15149Y32597
X16419Y30692
X17689Y32597
X8729Y24207
X6189Y24207
T6
X402Y16904
X70060Y16904
X70060Y61309
X402Y61309
M30